# Blender 3.6.0
# www.blender.org
mtllib sample.mtl
o Box
v -1.000000 -1.000000 1.000000
v -1.000000 1.000000 1.000000
v -1.000000 -1.000000 -1.000000
v -1.000000 1.000000 -1.000000
v 1.000000 -1.000000 1.000000
v 1.000000 1.000000 1.000000
v 1.000000 -1.000000 -1.000000
v 1.000000 1.000000 -1.000000
vn -1.0000 -0.0000 -0.0000
vn -0.0000 -0.0000 -1.0000
vn 1.0000 -0.0000 -0.0000
vn -0.0000 -0.0000 1.0000
vn -0.0000 -1.0000 -0.0000
vn -0.0000 1.0000 -0.0000
vt 0.000000 0.000000
vt 0.000000 1.000000
vt 1.000000 1.000000
vt 1.000000 0.000000
s 0
usemtl Box
f 1/1/1 2/2/1 4/3/1 3/4/1
f 3/1/2 4/2/2 8/3/2 7/4/2
f 7/4/3 8/3/3 6/2/3 5/1/3
f 5/4/4 6/3/4 2/2/4 1/1/4
f 3/2/5 7/3/5 5/4/5 1/1/5
f 8/3/6 4/2/6 2/1/6 6/4/6
o Box.001
v 0.000000 -1.000000 -2.000000
v 0.000000 1.000000 -2.000000
v 0.000000 -1.000000 -4.000000
v 0.000000 1.000000 -4.000000
v 2.000000 -1.000000 -2.000000
v 2.000000 1.000000 -2.000000
v 2.000000 -1.000000 -4.000000
v 2.000000 1.000000 -4.000000
vn -1.0000 -0.0000 -0.0000
vn -0.0000 -0.0000 -1.0000
vn 1.0000 -0.0000 -0.0000
vn -0.0000 -0.0000 1.0000
vn -0.0000 -1.0000 -0.0000
vn -0.0000 1.0000 -0.0000
vt 0.000000 0.000000
vt 0.000000 1.000000
vt 1.000000 1.000000
vt 1.000000 0.000000
s 0
usemtl Box
f 9/5/7 10/6/7 12/7/7 11/8/7
f 11/5/8 12/6/8 16/7/8 15/8/8
f 15/8/9 16/7/9 14/6/9 13/5/9
f 13/8/10 14/7/10 10/6/10 9/5/10
f 11/6/11 15/7/11 13/8/11 9/5/11
f 16/7/12 12/6/12 10/5/12 14/8/12
o Box.002
v -5.000000 -1.000000 -1.000000
v -5.000000 1.000000 -1.000000
v -5.000000 -1.000000 -3.000000
v -5.000000 1.000000 -3.000000
v -3.000000 -1.000000 -1.000000
v -3.000000 1.000000 -1.000000
v -3.000000 -1.000000 -3.000000
v -3.000000 1.000000 -3.000000
vn -1.0000 -0.0000 -0.0000
vn -0.0000 -0.0000 -1.0000
vn 1.0000 -0.0000 -0.0000
vn -0.0000 -0.0000 1.0000
vn -0.0000 -1.0000 -0.0000
vn -0.0000 1.0000 -0.0000
vt 0.000000 0.000000
vt 0.000000 1.000000
vt 1.000000 1.000000
vt 1.000000 0.000000
s 0
usemtl Box
f 17/9/13 18/10/13 20/11/13 19/12/13
f 19/9/14 20/10/14 24/11/14 23/12/14
f 23/12/15 24/11/15 22/10/15 21/9/15
f 21/12/16 22/11/16 18/10/16 17/9/16
f 19/10/17 23/11/17 21/12/17 17/9/17
f 24/11/18 20/10/18 18/9/18 22/12/18
o Dice
v 1.000000 -1.000000 4.000000
v 1.000000 1.000000 4.000000
v 1.000000 -1.000000 2.000000
v 1.000000 1.000000 2.000000
v 3.000000 -1.000000 4.000000
v 3.000000 1.000000 4.000000
v 3.000000 -1.000000 2.000000
v 3.000000 1.000000 2.000000
vn -1.0000 -0.0000 -0.0000
vn -0.0000 -0.0000 -1.0000
vn 1.0000 -0.0000 -0.0000
vn -0.0000 -0.0000 1.0000
vn -0.0000 -1.0000 -0.0000
vn -0.0000 1.0000 -0.0000
vt 0.750000 0.500000
vt 0.750000 0.750000
vt 0.500000 0.750000
vt 0.500000 0.500000
vt 0.750000 1.000000
vt 0.500000 1.000000
vt 0.250000 0.750000
vt 0.250000 1.000000
vt 0.000000 1.000000
vt 0.000000 0.750000
vt 0.250000 0.500000
vt 0.000000 0.500000
s 0
usemtl Dice
f 25/13/19 26/14/19 28/15/19 27/16/19
f 27/14/20 28/17/20 32/18/20 31/15/20
f 31/19/21 32/20/21 30/21/21 29/22/21
f 29/23/22 30/19/22 26/22/22 25/24/22
f 27/19/23 31/23/23 29/16/23 25/15/23
f 32/15/24 28/18/24 26/20/24 30/19/24
o Dice.001
v -3.000000 -1.000000 5.000000
v -3.000000 1.000000 5.000000
v -3.000000 -1.000000 3.000000
v -3.000000 1.000000 3.000000
v -1.000000 -1.000000 5.000000
v -1.000000 1.000000 5.000000
v -1.000000 -1.000000 3.000000
v -1.000000 1.000000 3.000000
vn -1.0000 -0.0000 -0.0000
vn -0.0000 -0.0000 -1.0000
vn 1.0000 -0.0000 -0.0000
vn -0.0000 -0.0000 1.0000
vn -0.0000 -1.0000 -0.0000
vn -0.0000 1.0000 -0.0000
vt 0.750000 0.500000
vt 0.750000 0.750000
vt 0.500000 0.750000
vt 0.500000 0.500000
vt 0.750000 1.000000
vt 0.500000 1.000000
vt 0.250000 0.750000
vt 0.250000 1.000000
vt 0.000000 1.000000
vt 0.000000 0.750000
vt 0.250000 0.500000
vt 0.000000 0.500000
s 0
usemtl Dice
f 33/25/25 34/26/25 36/27/25 35/28/25
f 35/26/26 36/29/26 40/30/26 39/27/26
f 39/31/27 40/32/27 38/33/27 37/34/27
f 37/35/28 38/31/28 34/34/28 33/36/28
f 35/31/29 39/35/29 37/28/29 33/27/29
f 40/27/30 36/30/30 34/32/30 38/31/30
o Sample_Text
v 2.000000 0.000000 -1.000000
v 2.000000 0.000000 1.000000
v 4.000000 0.000000 -1.000000
v 4.000000 0.000000 1.000000
vn -0.0000 1.0000 -0.0000
vt 1.000000 1.000000
vt 0.000000 1.000000
vt -0.000000 0.000000
vt 1.000000 0.000000
s 0
usemtl Text_material
f 41/37/31 42/38/31 44/39/31 43/40/31
