# Blender 3.6.0
# www.blender.org
mtllib wb_oit_test.mtl
o a
v -1.000000 -1.000000 -0.000000
v 1.000000 -1.000000 -0.000000
v -1.000000 1.000000 0.000000
v 1.000000 1.000000 0.000000
vn -0.0000 -0.0000 1.0000
vt 0.000000 0.000000
vt 1.000000 0.000000
vt 1.000000 1.000000
vt 0.000000 1.000000
s 0
usemtl a
f 1/1/1 2/2/1 4/3/1 3/4/1
o b
v -1.000000 -1.000000 1.000000
v 1.000000 -1.000000 1.000000
v -1.000000 1.000000 1.000000
v 1.000000 1.000000 1.000000
vn -0.0000 -0.0000 1.0000
vt 0.000000 0.000000
vt 1.000000 0.000000
vt 1.000000 1.000000
vt 0.000000 1.000000
s 0
usemtl b
f 5/5/2 6/6/2 8/7/2 7/8/2
o c
v -1.000000 -1.000000 3.000000
v 1.000000 -1.000000 3.000000
v -1.000000 1.000000 3.000000
v 1.000000 1.000000 3.000000
vn -0.0000 -0.0000 1.0000
vt 0.000000 0.000000
vt 1.000000 0.000000
vt 1.000000 1.000000
vt 0.000000 1.000000
s 0
usemtl c
f 9/9/3 10/10/3 12/11/3 11/12/3
o b.001
v 1.000000 1.000000 2.000000
v -1.000000 1.000000 2.000000
v 1.000000 -1.000000 2.000000
v -1.000000 -1.000000 2.000000
vn -0.0000 -0.0000 1.0000
vt 0.000000 0.000000
vt 1.000000 0.000000
vt 1.000000 1.000000
vt 0.000000 1.000000
s 0
usemtl b
f 13/13/4 14/14/4 16/15/4 15/16/4
